<svg width="1600" height="960" viewBox="0 0 1600 960" fill="none" xmlns="http://www.w3.org/2000/svg">
  <rect width="1600" height="960" rx="24" fill="#111827"/>
  <rect x="48" y="48" width="1504" height="864" rx="20" fill="#161F34" stroke="#2E3B63"/>
  <rect x="96" y="104" width="360" height="280" rx="16" fill="#202A45"/>
  <rect x="112" y="128" width="220" height="16" rx="8" fill="#5A6EE5"/>
  <rect x="112" y="162" width="140" height="12" rx="6" fill="#8FA0F5"/>
  <rect x="112" y="200" width="312" height="160" rx="12" fill="#1B2540" stroke="#33416A"/>
  <path d="M128 318L176 280L228 292L286 236L340 254L408 216" stroke="#60A5FA" stroke-width="4" stroke-linecap="round"/>
  <rect x="488" y="104" width="1016" height="180" rx="16" fill="#202A45"/>
  <rect x="516" y="136" width="220" height="14" rx="7" fill="#5A6EE5"/>
  <rect x="516" y="166" width="140" height="10" rx="5" fill="#8FA0F5"/>
  <rect x="516" y="198" width="960" height="60" rx="10" fill="#1B2540"/>
  <circle cx="548" cy="228" r="8" fill="#22C55E"/>
  <circle cx="578" cy="228" r="8" fill="#EAB308"/>
  <circle cx="608" cy="228" r="8" fill="#EF4444"/>
  <rect x="488" y="316" width="500" height="548" rx="16" fill="#202A45"/>
  <rect x="516" y="350" width="220" height="14" rx="7" fill="#7C8CF0"/>
  <rect x="516" y="380" width="130" height="10" rx="5" fill="#AAB4FA"/>
  <rect x="516" y="412" width="444" height="420" rx="14" fill="#1B2540" stroke="#33416A"/>
  <rect x="1020" y="316" width="484" height="260" rx="16" fill="#202A45"/>
  <rect x="1048" y="350" width="190" height="14" rx="7" fill="#7C8CF0"/>
  <rect x="1048" y="380" width="120" height="10" rx="5" fill="#AAB4FA"/>
  <rect x="1048" y="414" width="426" height="130" rx="12" fill="#1B2540" stroke="#33416A"/>
  <rect x="1020" y="604" width="484" height="260" rx="16" fill="#202A45"/>
  <rect x="1048" y="638" width="190" height="14" rx="7" fill="#7C8CF0"/>
  <rect x="1048" y="668" width="120" height="10" rx="5" fill="#AAB4FA"/>
  <rect x="1048" y="702" width="426" height="130" rx="12" fill="#1B2540" stroke="#33416A"/>
</svg>